<svg width="24" height="24" viewBox="0 0 24 24" fill="none" xmlns="http://www.w3.org/2000/svg">
<g id="vuesax/broken/box">
<g id="box">
<g id="Group">
<g id="Group_2">
<path id="Vector" d="M3.16992 7.44006L11.9999 12.55L20.7699 7.47003" stroke="#B7B0B0" stroke-width="1.5" stroke-linecap="round" stroke-linejoin="round"/>
<path id="Vector_2" d="M12 21.61V12.54" stroke="#B7B0B0" stroke-width="1.5" stroke-linecap="round" stroke-linejoin="round"/>
</g>
<path id="Vector_3" d="M2.39014 9.17007C2.39014 7.79007 3.38012 6.11009 4.59012 5.44009L9.93011 2.47006C11.0701 1.84006 12.9401 1.84006 14.0801 2.47006L19.4201 5.44009C20.6301 6.11009 21.6201 7.79007 21.6201 9.17007V14.8201C21.6201 16.2001 20.6301 17.8801 19.4201 18.5501L14.0801 21.5201C12.9401 22.1501 11.0701 22.1501 9.93011 21.5201L4.59012 18.5501C3.38012 17.8801 2.39014 16.2001 2.39014 14.8201V14.0001" stroke="#B7B0B0" stroke-width="1.5" stroke-linecap="round" stroke-linejoin="round"/>
</g>
<path id="Vector_4" d="M16.9998 13.24V9.58002L10.9297 6.07001L9.87976 5.46997L7.50977 4.09998" stroke="#B7B0B0" stroke-width="1.5" stroke-linecap="round" stroke-linejoin="round"/>
</g>
</g>
</svg>
