<svg width="24" height="24" viewBox="0 0 24 24" fill="none" xmlns="http://www.w3.org/2000/svg">
<g id="vuesax/broken/setting-2">
<g id="setting-2">
<path id="Vector" d="M15 12C15 10.34 13.66 9 12 9C10.34 9 9 10.34 9 12C9 13.66 10.34 15 12 15C12.41 15 12.81 14.92 13.17 14.76" stroke="#B2ABAB" stroke-width="1.5" stroke-miterlimit="10" stroke-linecap="round" stroke-linejoin="round"/>
<path id="Vector_2" d="M6.87988 20.5799L7.96988 21.2099C8.75988 21.6799 9.77988 21.3999 10.2499 20.6099L10.3599 20.4199C11.2599 18.8499 12.7399 18.8499 13.6499 20.4199L13.7599 20.6099C14.2299 21.3999 15.2499 21.6799 16.0399 21.2099L17.7699 20.2199C18.6799 19.6999 18.9899 18.5299 18.4699 17.6299C17.5599 16.0599 18.2999 14.7799 20.1099 14.7799C21.1499 14.7799 22.0099 13.9299 22.0099 12.8799V11.1199C22.0099 10.0799 21.1599 9.21995 20.1099 9.21995C19.0999 9.21995 18.4199 8.81995 18.1799 8.18995C17.9899 7.69995 18.0699 7.05995 18.4699 6.36995C18.9899 5.45995 18.6799 4.29995 17.7699 3.77995L16.9599 3.31995" stroke="#B2ABAB" stroke-width="1.5" stroke-miterlimit="10" stroke-linecap="round" stroke-linejoin="round"/>
<path id="Vector_3" d="M13.64 3.58006C12.74 5.15006 11.26 5.15006 10.35 3.58006L10.24 3.39006C9.78 2.60006 8.76 2.32006 7.97 2.79006L6.24 3.78006C5.33 4.30006 5.02 5.47006 5.54 6.38006C6.45 7.94006 5.71 9.22006 3.9 9.22006C2.86 9.22006 2 10.0701 2 11.1201V12.8801C2 13.9201 2.85 14.7801 3.9 14.7801C5.71 14.7801 6.45 16.0601 5.54 17.6301" stroke="#B2ABAB" stroke-width="1.5" stroke-miterlimit="10" stroke-linecap="round" stroke-linejoin="round"/>
</g>
</g>
</svg>
